<svg xmlns="http://www.w3.org/2000/svg" viewBox="0 0 200 200" fill="currentColor">
  <defs>
    <linearGradient id="mountainGradient" x1="0%" y1="0%" x2="100%" y2="100%">
      <stop offset="0%" style="stop-color:currentColor;stop-opacity:1" />
      <stop offset="100%" style="stop-color:currentColor;stop-opacity:0.7" />
    </linearGradient>
  </defs>
  
  <!-- Mountain silhouette representing Darjeeling hills -->
  <path d="M20 150 L50 100 L80 120 L120 80 L160 110 L180 90 L200 120 L200 180 L20 180 Z" 
        fill="url(#mountainGradient)" opacity="0.8"/>
  
  <!-- Tea leaf design -->
  <path d="M100 60 Q90 50 85 65 Q90 80 100 75 Q110 80 115 65 Q110 50 100 60 Z" 
        fill="currentColor"/>
  
  <!-- Stem -->
  <line x1="100" y1="75" x2="100" y2="90" stroke="currentColor" stroke-width="2"/>
  
  <!-- Mountain peaks -->
  <path d="M40 130 L60 100 L80 130 M120 120 L140 90 L160 120" 
        stroke="currentColor" stroke-width="2" fill="none"/>
  
  <!-- Decorative dots representing tea gardens -->
  <circle cx="70" cy="140" r="2" fill="currentColor" opacity="0.6"/>
  <circle cx="130" cy="135" r="2" fill="currentColor" opacity="0.6"/>
  <circle cx="90" cy="145" r="1.5" fill="currentColor" opacity="0.6"/>
  <circle cx="150" cy="140" r="1.5" fill="currentColor" opacity="0.6"/>
</svg>