<svg xmlns="http://www.w3.org/2000/svg" viewBox="0 0 200 200" fill="currentColor">
  <!-- Mountain silhouette representing Darjeeling hills -->
  <path d="M20 140 L60 80 L100 100 L140 60 L180 120 L200 110 L200 180 L0 180 Z" 
        fill="currentColor" opacity="0.8"/>
  
  <!-- Tea leaf design -->
  <path d="M100 50 Q120 70 100 90 Q80 70 100 50 Z" 
        fill="currentColor" opacity="0.9"/>
  
  <!-- Stylized "DS" monogram -->
  <g transform="translate(100, 100)">
    <!-- D -->
    <path d="M-30 -20 L-30 20 L-10 20 Q10 20 10 0 Q10 -20 -10 -20 Z" 
          fill="currentColor"/>
    <!-- S -->
    <path d="M15 -20 Q35 -20 35 -10 Q35 0 25 0 Q35 0 35 10 Q35 20 15 20" 
          stroke="currentColor" stroke-width="3" fill="none"/>
  </g>
  
  <!-- Decorative elements -->
  <circle cx="50" cy="60" r="3" fill="currentColor" opacity="0.6"/>
  <circle cx="150" cy="70" r="2" fill="currentColor" opacity="0.6"/>
  <circle cx="70" cy="130" r="2" fill="currentColor" opacity="0.6"/>
</svg></svg>